<svg width="45" height="45" viewBox="0 0 45 45" fill="none" xmlns="http://www.w3.org/2000/svg">
<rect width="45" height="45" rx="8" fill="#205075"/>
<path d="M22.0949 20.06C21.7109 20.06 21.3309 19.956 20.9549 19.748C20.5789 19.532 20.2789 19.116 20.0549 18.5L19.7549 17.72H16.3949L15.4349 20H14.8949L18.2549 12.08H18.6149L21.2549 18.5C21.4549 18.964 21.6429 19.284 21.8189 19.46C21.9949 19.628 22.2469 19.728 22.5749 19.76V20C22.4309 20.04 22.2709 20.06 22.0949 20.06ZM16.5749 17.24H19.5149L18.0749 13.76L16.5749 17.24ZM29.7 20.12C29.324 20.12 28.932 20.02 28.524 19.82C28.116 19.612 27.648 19.232 27.12 18.68L24.6 16.04V20H23.52V13.52C23.52 13.112 23.464 12.812 23.352 12.62C23.24 12.42 23.016 12.32 22.68 12.32H22.44V12.08H23.52C23.816 12.08 24.036 12.12 24.18 12.2C24.332 12.272 24.44 12.408 24.504 12.608C24.568 12.808 24.6 13.112 24.6 13.52V15.86L27.12 13.34L27.36 13.088C27.584 12.856 27.772 12.676 27.924 12.548C28.076 12.412 28.256 12.3 28.464 12.212C28.672 12.124 28.904 12.08 29.16 12.08H29.76V12.38C29.424 12.38 29.132 12.44 28.884 12.56C28.636 12.672 28.348 12.892 28.02 13.22L25.68 15.56L28.44 18.44C28.792 18.8 29.148 19.104 29.508 19.352C29.868 19.592 30.192 19.732 30.48 19.772V20C30.24 20.08 29.98 20.12 29.7 20.12ZM5.47317 26.52C5.47317 26.112 5.41717 25.812 5.30517 25.62C5.19317 25.42 4.96917 25.32 4.63317 25.32H4.39317V25.08H9.37317C10.0532 25.08 10.3932 25.4 10.3932 26.04V26.94H10.1532C10.1532 26.02 9.65317 25.56 8.65317 25.56H6.55317V33H5.47317V26.52ZM14.2505 33.24C13.5065 33.24 12.8505 33.056 12.2825 32.688C11.7225 32.32 11.2905 31.816 10.9865 31.176C10.6825 30.536 10.5305 29.824 10.5305 29.04C10.5305 28.256 10.6825 27.544 10.9865 26.904C11.2905 26.264 11.7225 25.76 12.2825 25.392C12.8505 25.024 13.5065 24.84 14.2505 24.84C14.9945 24.84 15.6465 25.024 16.2065 25.392C16.7745 25.76 17.2105 26.264 17.5145 26.904C17.8185 27.544 17.9705 28.256 17.9705 29.04C17.9705 29.824 17.8185 30.536 17.5145 31.176C17.2105 31.816 16.7745 32.32 16.2065 32.688C15.6465 33.056 14.9945 33.24 14.2505 33.24ZM14.2505 32.76C14.7705 32.76 15.2185 32.608 15.5945 32.304C15.9785 32 16.2705 31.572 16.4705 31.02C16.6705 30.46 16.7705 29.8 16.7705 29.04C16.7705 28.28 16.6705 27.624 16.4705 27.072C16.2705 26.512 15.9785 26.08 15.5945 25.776C15.2185 25.472 14.7705 25.32 14.2505 25.32C13.7305 25.32 13.2785 25.472 12.8945 25.776C12.5185 26.08 12.2305 26.512 12.0305 27.072C11.8305 27.624 11.7305 28.28 11.7305 29.04C11.7305 29.8 11.8305 30.46 12.0305 31.02C12.2305 31.572 12.5185 32 12.8945 32.304C13.2785 32.608 13.7305 32.76 14.2505 32.76ZM19.7115 26.52C19.7115 26.112 19.6555 25.812 19.5435 25.62C19.4315 25.42 19.2075 25.32 18.8715 25.32H18.6315V25.08H21.7515C22.5195 25.08 23.2115 25.244 23.8275 25.572C24.4435 25.9 24.7515 26.536 24.7515 27.48C24.7515 28.104 24.5915 28.584 24.2715 28.92C23.9515 29.256 23.5915 29.48 23.1915 29.592C22.7995 29.704 22.4395 29.76 22.1115 29.76H20.7915V33H19.7115V26.52ZM21.6915 29.34C21.9475 29.34 22.2195 29.276 22.5075 29.148C22.7955 29.012 23.0395 28.8 23.2395 28.512C23.4475 28.224 23.5515 27.86 23.5515 27.42C23.5515 26.98 23.4475 26.616 23.2395 26.328C23.0395 26.04 22.7955 25.832 22.5075 25.704C22.2195 25.568 21.9475 25.5 21.6915 25.5C21.4115 25.5 21.1115 25.54 20.7915 25.62V29.22C21.1115 29.3 21.4115 29.34 21.6915 29.34ZM32.5125 33.12C32.1365 33.12 31.7445 33.02 31.3365 32.82C30.9285 32.612 30.4605 32.232 29.9325 31.68L27.4125 29.04V33H26.3325V26.52C26.3325 26.112 26.2765 25.812 26.1645 25.62C26.0525 25.42 25.8285 25.32 25.4925 25.32H25.2525V25.08H26.3325C26.6285 25.08 26.8485 25.12 26.9925 25.2C27.1445 25.272 27.2525 25.408 27.3165 25.608C27.3805 25.808 27.4125 26.112 27.4125 26.52V28.86L29.9325 26.34L30.1725 26.088C30.3965 25.856 30.5845 25.676 30.7365 25.548C30.8885 25.412 31.0685 25.3 31.2765 25.212C31.4845 25.124 31.7165 25.08 31.9725 25.08H32.5725V25.38C32.2365 25.38 31.9445 25.44 31.6965 25.56C31.4485 25.672 31.1605 25.892 30.8325 26.22L28.4925 28.56L31.2525 31.44C31.6045 31.8 31.9605 32.104 32.3205 32.352C32.6805 32.592 33.0045 32.732 33.2925 32.772V33C33.0525 33.08 32.7925 33.12 32.5125 33.12ZM40.6456 33.06C40.2616 33.06 39.8816 32.956 39.5056 32.748C39.1296 32.532 38.8296 32.116 38.6056 31.5L38.3056 30.72H34.9456L33.9856 33H33.4456L36.8056 25.08H37.1656L39.8056 31.5C40.0056 31.964 40.1936 32.284 40.3696 32.46C40.5456 32.628 40.7976 32.728 41.1256 32.76V33C40.9816 33.04 40.8216 33.06 40.6456 33.06ZM35.1256 30.24H38.0656L36.6256 26.76L35.1256 30.24Z" fill="white"/>
</svg>
