<svg xmlns="http://www.w3.org/2000/svg" width="24" height="24" viewBox="0 0 28 28" fill="none">
                    <g clip-path="url(#clip0_283_441)">
                    <path d="M14 28C21.732 28 28 21.732 28 14C28 6.26801 21.732 0 14 0C6.26801 0 0 6.26801 0 14C0 21.732 6.26801 28 14 28Z" fill="url(#paint0_linear_283_441)"/>
                    <path fill-rule="evenodd" clip-rule="evenodd" d="M6.33719 13.8522C10.4185 12.0741 13.14 10.9018 14.5017 10.3354C18.3896 8.7183 19.1975 8.43738 19.7241 8.42811C19.8399 8.42607 20.0988 8.45477 20.2666 8.59088C20.4082 8.7058 20.4472 8.86105 20.4658 8.97001C20.4845 9.07898 20.5077 9.3272 20.4892 9.52115C20.2785 11.7349 19.3669 17.107 18.9031 19.5864C18.7069 20.6356 18.3204 20.9873 17.9463 21.0217C17.1333 21.0966 16.516 20.4845 15.7285 19.9683C14.4963 19.1606 13.8002 18.6578 12.6042 17.8696C11.222 16.9587 12.118 16.4581 12.9057 15.6399C13.1119 15.4258 16.694 12.1676 16.7633 11.872C16.772 11.835 16.7801 11.6973 16.6982 11.6245C16.6163 11.5517 16.4955 11.5766 16.4083 11.5964C16.2848 11.6245 14.3163 12.9255 10.5031 15.4996C9.94433 15.8832 9.43825 16.0702 8.98482 16.0604C8.48494 16.0496 7.52339 15.7777 6.80857 15.5454C5.93182 15.2604 5.235 15.1097 5.29568 14.6257C5.32728 14.3736 5.67445 14.1158 6.33719 13.8522Z" fill="white"/>
                    </g>
                    <defs>
                    <linearGradient id="paint0_linear_283_441" x1="14" y1="0" x2="14" y2="27.7923" gradientUnits="userSpaceOnUse">
                    <stop stop-color="#2AABEE"/>
                    <stop offset="1" stop-color="#229ED9"/>
                    </linearGradient>
                    <clipPath id="clip0_283_441">
                    <rect width="28" height="28" fill="white"/>
                    </clipPath>
                    </defs>
                    </svg>